HIERARCHY
ROOT SpineBase
{
  OFFSET 0.000000 0.000000 0.000000
  CHANNELS 6 Xposition Yposition Zposition Zrotation Xrotation Yrotation
  JOINT SpineMid
  {
    OFFSET 0.000000 31.089194 0.000000
    CHANNELS 3 Zrotation Xrotation Yrotation
    JOINT SpineShoulder
    {
      OFFSET 0.063149 23.049415 -0.754679
      CHANNELS 3 Zrotation Xrotation Yrotation
      JOINT Neck
      {
        OFFSET 0.043099 7.614171 -0.572491
        CHANNELS 3 Zrotation Xrotation Yrotation
        JOINT Head
        {
          OFFSET -4.034266 13.175159 -0.832948
          CHANNELS 3 Zrotation Xrotation Yrotation
          End Site
          {
            OFFSET 0 0 0
          }
        }
      }
      JOINT ShoulderLeft
      {
        OFFSET -16.365793 -3.885195 9.220428
        CHANNELS 3 Zrotation Xrotation Yrotation
        JOINT ElbowLeft
        {
          OFFSET -3.489920 -19.072725 -1.697543
          CHANNELS 3 Zrotation Xrotation Yrotation
          JOINT WristLeft
          {
            OFFSET 14.749844 -3.100985 -22.356554
            CHANNELS 3 Zrotation Xrotation Yrotation
            JOINT HandLeft
            {
              OFFSET -1.743552 -0.798690 -7.516293
              CHANNELS 3 Zrotation Xrotation Yrotation
              JOINT HandTipLeft
              {
                OFFSET -2.254049 0.650783 -2.704320
                CHANNELS 3 Zrotation Xrotation Yrotation
                End Site
                {
                  OFFSET 0 0 0
                }
              }
              JOINT ThumbLeft
              {
                OFFSET 3.207127 -1.079112 0.369112
                CHANNELS 3 Zrotation Xrotation Yrotation
                End Site
                {
                  OFFSET 0 0 0
                }
              }
            }
          }
        }
      }
      JOINT ShoulderRight
      {
        OFFSET 12.969477 -2.789397 -7.730342
        CHANNELS 3 Zrotation Xrotation Yrotation
        JOINT ElbowRight
        {
          OFFSET 5.281186 -21.165478 -5.947443
          CHANNELS 3 Zrotation Xrotation Yrotation
          JOINT WristRight
          {
            OFFSET -22.113919 -4.498416 -7.640471
            CHANNELS 3 Zrotation Xrotation Yrotation
            JOINT HandRight
            {
              OFFSET -9.383362 2.048014 -2.670731
              CHANNELS 3 Zrotation Xrotation Yrotation
              JOINT HandTipRight
              {
                OFFSET -7.524324 0.455646 0.758544
                CHANNELS 3 Zrotation Xrotation Yrotation
                End Site
                {
                  OFFSET 0 0 0
                }
              }
              JOINT ThumbRight
              {
                OFFSET -6.440584 -2.177362 -0.172483
                CHANNELS 3 Zrotation Xrotation Yrotation
                End Site
                {
                  OFFSET 0 0 0
                }
              }
            }
          }
        }
      }
    }
  }
  JOINT HipLeft
  {
    OFFSET -6.419399 -0.347230 -0.056680
    CHANNELS 3 Zrotation Xrotation Yrotation
    JOINT KneeLeft
    {
      OFFSET 4.551280 -37.035665 5.950396
      CHANNELS 3 Zrotation Xrotation Yrotation
      JOINT AnkleLeft
      {
        OFFSET 9.206037 -34.599569 9.542255
        CHANNELS 3 Zrotation Xrotation Yrotation
        JOINT FootLeft
        {
          OFFSET -2.228035 -7.387815 -6.414874
          CHANNELS 3 Zrotation Xrotation Yrotation
          End Site
          {
            OFFSET 0 0 0
          }
        }
      }
    }
  }
  JOINT HipRight
  {
    OFFSET 6.791468 1.794349 -7.029874
    CHANNELS 3 Zrotation Xrotation Yrotation
    JOINT KneeRight
    {
      OFFSET 7.949316 -35.427628 -0.382874
      CHANNELS 3 Zrotation Xrotation Yrotation
      JOINT AnkleRight
      {
        OFFSET 7.953802 -37.733371 10.371272
        CHANNELS 3 Zrotation Xrotation Yrotation
        JOINT FootRight
        {
          OFFSET -2.475076 -7.855257 -3.741306
          CHANNELS 3 Zrotation Xrotation Yrotation
          End Site
          {
            OFFSET 0 0 0
          }
        }
      }
    }
  }
}
MOTION
Frames: 14
Frame Time: 0.033333
-15.530535 79.739373 347.467000 1.521221 -3.077283 30.885748 0.069087 -0.038787 -30.786270 0.050974 -0.071942 0.080561 8.200006 -7.166940 -2.216439 0.000000 0.000000 0.000000 1.100099 25.830809 -5.168177 7.477351 10.425359 26.417324 -28.220127 -37.703897 -95.651884 -33.450259 -2.559336 -31.891500 0.000000 0.000000 0.000000 0.000000 0.000000 0.000000 -6.738355 2.342117 1.393773 -13.384075 6.857310 1.280478 27.627169 -6.375534 8.748003 -9.895674 1.283328 -11.922252 0.000000 0.000000 0.000000 0.000000 0.000000 0.000000 0.134133 6.045542 -30.808627 -0.362978 -3.280585 -0.889187 0.449831 -3.305067 3.394705 0.000000 0.000000 0.000000 0.273480 3.421528 -30.853053 -1.817576 -1.313248 -0.797420 8.691858 4.368038 -3.845765 0.000000 0.000000 0.000000
-15.538690 79.744816 347.478862 1.528647 -3.067760 30.822319 0.071646 -0.042251 -30.722490 0.049236 -0.074941 0.081007 8.191246 -6.938404 -2.166247 0.000000 0.000000 0.000000 1.126771 26.171298 -5.252812 7.630267 10.324889 26.294776 -31.047624 -39.594770 -98.636618 -33.237968 -3.021117 -26.701473 0.000000 0.000000 0.000000 0.000000 0.000000 0.000000 -6.810504 2.337267 1.413828 -13.281659 6.676422 1.690625 27.896149 -6.520325 8.202942 -9.164506 1.337329 -11.906670 0.000000 0.000000 0.000000 0.000000 0.000000 0.000000 0.088028 6.015885 -30.748395 -0.369512 -3.155541 -0.862935 0.574671 -2.750285 3.070919 0.000000 0.000000 0.000000 0.258415 3.417452 -30.789092 -1.865168 -1.214711 -0.788927 11.647554 0.318473 -3.867966 0.000000 0.000000 0.000000
-15.553052 79.744497 347.496591 1.531423 -3.078231 30.734826 0.073329 -0.045165 -30.634622 0.047357 -0.077146 0.081235 8.209117 -6.590993 -2.095568 0.000000 0.000000 0.000000 1.173724 26.607124 -5.359138 7.809720 10.157453 26.122614 -35.548594 -42.229503 -102.506454 -34.052640 -2.390876 -23.001066 0.000000 0.000000 0.000000 0.000000 0.000000 0.000000 -6.783484 2.286420 1.385485 -12.853475 6.443124 2.036818 26.513227 -6.337948 7.251258 -6.808389 0.921158 -12.500813 0.000000 0.000000 0.000000 0.000000 0.000000 0.000000 0.061205 6.004563 -30.663275 -0.411443 -2.998162 -0.837342 0.762399 -1.959441 2.630653 0.000000 0.000000 0.000000 0.256153 3.428260 -30.701341 -1.920931 -1.140916 -0.788275 9.616329 5.679834 -4.817278 0.000000 0.000000 0.000000
-15.567358 79.747489 347.498805 1.527262 -3.106285 30.566354 0.073983 -0.048140 -30.465916 0.045748 -0.078652 0.081170 8.263332 -6.155324 -2.009780 0.000000 0.000000 0.000000 1.240179 26.993068 -5.456431 8.078808 10.152719 25.769198 -39.457372 -44.436613 -104.733597 -36.326667 -0.607396 -20.579983 0.000000 0.000000 0.000000 0.000000 0.000000 0.000000 -6.712866 2.273373 1.353078 -12.444655 6.195746 2.362383 25.200328 -6.358654 5.583619 -5.129973 0.894753 -10.267004 0.000000 0.000000 0.000000 0.000000 0.000000 0.000000 0.019024 5.993549 -30.500000 -0.435722 -2.785973 -0.795216 0.954702 -1.424589 2.248015 0.000000 0.000000 0.000000 0.263923 3.451040 -30.532892 -1.939620 -1.191759 -0.805121 8.115382 10.945820 -5.791632 0.000000 0.000000 0.000000
-15.582252 79.754575 347.496808 1.524871 -3.113781 30.355694 0.069030 -0.055824 -30.255133 0.044700 -0.082158 0.081110 8.280228 -5.869567 -1.955283 0.000000 0.000000 0.000000 1.334225 27.298645 -5.549213 8.304126 10.149785 25.393294 -42.763178 -46.202449 -106.580341 -37.192666 0.475975 -17.437429 0.000000 0.000000 0.000000 0.000000 0.000000 0.000000 -6.567969 2.222184 1.286854 -11.966047 5.981684 2.561979 23.169088 -6.271776 3.505594 -4.131682 0.631135 -10.435520 0.000000 0.000000 0.000000 0.000000 0.000000 0.000000 -0.018259 5.971555 -30.291551 -0.410227 -2.698351 -0.767746 1.390408 -0.914269 1.652172 0.000000 0.000000 0.000000 0.257076 3.457249 -30.322005 -1.952786 -1.222447 -0.815837 6.815737 13.902340 -5.987228 0.000000 0.000000 0.000000
-15.595256 79.765276 347.484439 1.526229 -3.106639 30.138980 0.059119 -0.067466 -30.038214 0.044295 -0.087840 0.081163 8.283377 -5.654343 -1.914527 0.000000 0.000000 0.000000 1.433107 27.366544 -5.596053 8.542478 10.370228 24.883129 -45.198969 -47.688011 -106.910996 -36.826339 1.292983 -17.263169 0.000000 0.000000 0.000000 0.000000 0.000000 0.000000 -6.431789 2.157066 1.220110 -11.551347 5.856037 2.621448 21.068085 -6.043664 1.815362 -4.484168 0.411555 -9.628689 0.000000 0.000000 0.000000 0.000000 0.000000 0.000000 -0.051605 5.951080 -30.074707 -0.311408 -2.720949 -0.744404 1.477809 -1.819067 1.772077 0.000000 0.000000 0.000000 0.239216 3.452700 -30.104800 -1.952190 -1.233718 -0.818213 5.345072 14.911939 -5.425077 0.000000 0.000000 0.000000
-15.605945 79.773549 347.466548 1.528885 -3.088286 29.908738 0.055123 -0.076659 -29.807921 0.045835 -0.089359 0.081407 8.259524 -5.521760 -1.885768 0.000000 0.000000 0.000000 1.375351 27.483208 -5.603011 8.900277 10.498970 24.415962 -47.234500 -49.029561 -106.782816 -38.254201 2.729547 -19.608976 0.000000 0.000000 0.000000 0.000000 0.000000 0.000000 -6.329687 2.074112 1.161104 -11.060212 5.798253 2.437407 18.361538 -5.594293 0.270489 -4.729148 -0.081200 -10.390888 0.000000 0.000000 0.000000 0.000000 0.000000 0.000000 -0.069602 5.928858 -29.841238 -0.235603 -2.780132 -0.733767 1.119117 -3.264618 2.478989 0.000000 0.000000 0.000000 0.213861 3.439049 -29.873942 -1.954440 -1.172345 -0.804985 4.354236 14.783913 -4.817332 0.000000 0.000000 0.000000
-15.609382 79.782741 347.435599 1.540037 -3.052780 29.717547 0.056227 -0.084296 -29.616471 0.050978 -0.087220 0.082224 8.141455 -5.651774 -1.911293 0.000000 0.000000 0.000000 1.220205 27.118362 -5.484317 9.644866 11.565497 23.423893 -44.889035 -49.016727 -102.171810 -33.489613 1.102751 -21.649345 0.000000 0.000000 0.000000 0.000000 0.000000 0.000000 -6.215080 2.023774 1.106531 -11.079023 5.844659 2.274236 17.048744 -5.387630 -0.435085 -5.091686 -0.337451 -10.216856 0.000000 0.000000 0.000000 0.000000 0.000000 0.000000 -0.100269 5.910640 -29.646276 -0.153034 -2.859369 -0.725886 0.890508 -3.916787 2.823571 0.000000 0.000000 0.000000 0.175057 3.414429 -29.681725 -1.984492 -1.111816 -0.799903 4.248834 13.974494 -4.506833 0.000000 0.000000 0.000000
-15.611638 79.793672 347.393891 1.560517 -3.017884 29.587752 0.053631 -0.099592 -29.485715 0.056137 -0.092528 0.083644 8.043862 -5.814165 -1.947901 0.000000 0.000000 0.000000 1.008256 26.240518 -5.241144 10.365248 12.995543 22.293747 -38.632866 -46.690575 -94.661699 -26.426578 -2.899616 -23.968531 0.000000 0.000000 0.000000 0.000000 0.000000 0.000000 -6.182918 2.058124 1.096962 -11.140930 5.926069 1.912858 15.525625 -5.183900 -1.281732 -6.307447 -0.675706 -8.508649 0.000000 0.000000 0.000000 0.000000 0.000000 0.000000 -0.127147 5.904815 -29.511715 -0.096505 -2.957045 -0.729961 0.655293 -4.450609 3.171116 0.000000 0.000000 0.000000 0.132230 3.394572 -29.550560 -2.010854 -1.036128 -0.790296 4.327084 12.000307 -3.951281 0.000000 0.000000 0.000000
-15.611575 79.807979 347.357393 1.584338 -2.980319 29.518733 0.059436 -0.105813 -29.415760 0.063346 -0.092123 0.085285 7.769917 -6.031426 -2.004797 0.000000 0.000000 0.000000 0.710924 24.972487 -4.898824 9.816056 13.982742 23.379402 -31.417794 -41.308628 -86.076648 -19.571719 -7.996409 -32.206295 0.000000 0.000000 0.000000 0.000000 0.000000 0.000000 -6.172596 2.060762 1.086466 -11.320100 6.084593 1.504809 15.524856 -4.988512 0.197965 -6.936845 -0.844404 -7.786453 0.000000 0.000000 0.000000 0.000000 0.000000 0.000000 -0.140959 5.903018 -29.436645 -0.014917 -3.121879 -0.742028 0.364382 -5.082306 3.599987 0.000000 0.000000 0.000000 0.088851 3.373763 -29.480132 -2.041904 -1.001997 -0.791422 5.017503 9.172715 -3.434187 0.000000 0.000000 0.000000
-15.612865 79.825710 347.332597 1.603192 -2.950774 29.523391 0.063098 -0.101489 -29.419852 0.064183 -0.088371 0.086027 7.415963 -6.393927 -2.101789 0.000000 0.000000 0.000000 0.437824 23.518396 -4.527178 10.190066 15.385044 22.602903 -26.702002 -37.478429 -83.483086 -19.732181 -10.524210 -41.684172 0.000000 0.000000 0.000000 0.000000 0.000000 0.000000 -6.169380 2.037600 1.078606 -11.896780 6.420914 1.108990 16.270303 -5.033412 1.788704 -7.344576 -0.901230 -7.251535 0.000000 0.000000 0.000000 0.000000 0.000000 0.000000 -0.143064 5.913199 -29.436192 0.006785 -3.249596 -0.763366 -0.043188 -5.127276 3.983112 0.000000 0.000000 0.000000 0.058124 3.357327 -29.483800 -2.061202 -0.987890 -0.793727 6.761274 5.334513 -3.097594 0.000000 0.000000 0.000000
-15.605055 79.833348 347.304430 1.617731 -2.924825 29.646402 0.066399 -0.088505 -29.542669 0.061003 -0.081152 0.086107 6.979168 -6.843076 -2.226819 0.000000 0.000000 0.000000 0.159253 22.220608 -4.189013 11.362258 16.841886 20.394064 -23.666378 -35.672357 -85.519377 -14.733488 -16.003494 -36.720916 0.000000 0.000000 0.000000 0.000000 0.000000 0.000000 -6.232616 1.985489 1.090812 -12.051353 6.423785 1.320710 15.746489 -4.358997 4.095133 -5.870584 -1.365806 -8.414151 0.000000 0.000000 0.000000 0.000000 0.000000 0.000000 -0.142417 5.928122 -29.556662 0.001820 -3.341059 -0.786078 -0.341817 -5.020477 4.249251 0.000000 0.000000 0.000000 0.039842 3.341825 -29.606262 -2.080907 -1.019280 -0.806488 9.111958 0.376495 -2.505197 0.000000 0.000000 0.000000
-15.594338 79.828743 347.280722 1.623870 -2.909808 29.821547 0.066325 -0.070460 -29.718039 0.052100 -0.073755 0.085315 6.479914 -7.334989 -2.376067 0.000000 0.000000 0.000000 -0.060347 21.339356 -3.949289 13.061059 17.931050 17.204086 -20.830420 -34.584844 -88.069616 -21.791798 -13.702700 -40.204955 0.000000 0.000000 0.000000 0.000000 0.000000 0.000000 -6.258361 1.893326 1.084799 -11.948233 6.510363 1.174989 14.398820 -3.741535 5.626563 -4.814730 -1.939954 -9.933131 0.000000 0.000000 0.000000 0.000000 0.000000 0.000000 -0.143615 5.934140 -29.732796 -0.078587 -3.326189 -0.808652 -0.525741 -4.170496 4.213396 0.000000 0.000000 0.000000 0.037262 3.331709 -29.781384 -2.064802 -0.988445 -0.794880 6.100244 4.967409 -2.616024 0.000000 0.000000 0.000000
-15.576501 79.822427 347.248379 1.629872 -2.889724 29.935698 0.086583 -0.047648 -29.832631 0.052826 -0.055264 0.085368 5.819348 -7.869132 -2.545782 0.000000 0.000000 0.000000 -0.330735 20.923965 -3.803075 16.054721 18.746510 11.831526 -21.580164 -38.061001 -92.473972 -23.100856 -15.410700 -34.003329 0.000000 0.000000 0.000000 0.000000 0.000000 0.000000 -6.342688 1.773382 1.086631 -12.114634 6.610790 1.283997 14.399437 -3.447912 7.181385 -4.551159 -2.199258 -10.598078 0.000000 0.000000 0.000000 0.000000 0.000000 0.000000 -0.208792 5.901407 -29.855239 -0.053157 -3.223822 -0.785130 -0.673778 -3.850350 4.221694 0.000000 0.000000 0.000000 0.028672 3.317215 -29.895416 -2.055835 -1.195054 -0.839231 6.849988 6.578171 -3.485516 0.000000 0.000000 0.000000
